<?xml version="1.0" encoding="UTF-8"?>
<svg id="uniweb-logo" data-name="uniweb-logo" xmlns="http://www.w3.org/2000/svg" viewBox="0 0 171.25 170">
  <title>Uniweb</title>
  <defs>
    <style>
      .cls-1 {
        fill: #0a0c0f;
      }
      @media (prefers-color-scheme: dark) {
        .cls-1 {
          fill: white;
        }
      }
    </style>
  </defs>
  <g id="uniweb-logo-svg" data-name="uniweb-logo-svg">
    <g>
      <path class="cls-1" d="m136.74,152.43l6.13-4.71-9.42-12.25-6.13,4.71c-12.23,9.4-26.87,14.37-42.33,14.37-38.35,0-69.55-31.2-69.55-69.55S46.65,15.45,85,15.45c19.72,0,38.59,8.42,51.77,23.11l5.16,5.75,11.5-10.32-5.16-5.75C132.16,10.29,109.1,0,85,0,38.13,0,0,38.13,0,85s38.13,85,85,85c18.89,0,36.79-6.07,51.74-17.57Z"/>
      <path class="cls-1" d="m156.31,57.1l-10.32,32.12-15.02-31.85h-.33l-15.08,31.9-1.5-4.64-.13-.4c-2.89-8.87-11.23-15.28-21.06-15.28-.47,0-.94.02-1.41.05-1.35.08-2.66.3-3.94.61-9.43,2.34-16.47,10.71-16.79,20.78,0,.24-.02.47-.02.71,0,.26.01.52.02.78.17,4.81,1.88,9.23,4.64,12.79-2.05,1.57-4.67,2.41-7.72,2.41-7.37,0-12.13-5.35-12.13-14.31l-.05-35.67h-16.82l.05,35.72c0,17.81,11.91,30.64,29,30.64,15.82,0,27.47-10.8,29.21-26.42-.95.64-2.1,1.01-3.33,1.01-3.32,0-6.01-2.69-6.01-6.01s2.69-6.01,6.01-6.01c2.5,0,4.64,1.52,5.55,3.69h.02s7.07,19.06,7.07,19.06l5.45,14.68h2.67l16.25-32.23,16.56,32.23h2.74l21.37-66.37h-14.94Z"/>
    </g>
  </g>
</svg>
